<svg width="268" height="81" viewBox="0 0 268 81" fill="none" xmlns="http://www.w3.org/2000/svg">
<path d="M68.668 30.092C66.2893 32.852 62.86 34.372 59.336 34.372C58.1187 34.372 56.892 34.1893 55.696 33.82C55.6333 33.8013 55.572 33.8067 55.5107 33.792C53.196 33.112 50.9853 32.3173 48.6573 31.072C47.5133 30.4587 46.4853 31.6707 47.4053 32.5867C50.0293 35.6453 50.764 38.4587 50.764 41.4413C50.764 43.5707 50.8787 57.532 50.8787 57.532H57.1493C57.1493 57.532 57.308 46.3227 57.3933 39.46C57.3933 38.5827 57.6533 38.0387 58.1186 37.616C60.276 35.9853 62.8587 35.0853 65.512 35.0853C67.06 35.0853 68.6253 35.3773 70.1186 35.98C70.548 36.1533 71.0093 36.2427 71.4986 36.2427C72.5107 36.2427 73.4226 35.8613 74.136 35.148C74.8573 34.4227 75.2266 33.536 75.2213 32.5147C75.2173 30.456 73.5293 28.7853 71.4933 28.7853C70.0093 28.7893 69.088 29.604 68.668 30.092ZM230.391 31.74C232.563 34.26 233.953 36.7787 233.953 42.6C233.953 48.42 234.301 48.2907 234.909 49.8547C235.561 51.332 236.473 52.7213 237.645 53.8933C238.817 55.0667 240.165 56.0227 241.729 56.6733C243.249 57.3693 244.899 57.6733 246.681 57.6733H262.733L260.74 53.024H246.681C245.029 53.024 243.597 52.592 242.337 51.7227C241.035 50.852 240.077 49.724 239.383 48.3333H257.236C258.757 48.3333 260.147 47.9853 261.407 47.2907C262.579 46.5533 263.579 45.5533 264.317 44.2933C265.056 43.0773 265.403 41.688 265.403 40.2107C265.403 38.6907 265.056 37.3013 264.317 36.084C263.579 34.868 262.579 33.8693 261.407 33.1307C260.147 32.392 258.757 32.0453 257.236 32.0453C257.236 32.0453 240.685 32.3493 240.121 32.3493C236.864 32.4347 234.387 32.132 231.651 30.22C231.432 30.0707 231.213 30.0067 231.011 30.0067C230.208 30.0067 229.663 31.012 230.391 31.74ZM239.688 36.736H257.236C258.235 36.736 259.017 37.04 259.712 37.736C260.407 38.4307 260.712 39.256 260.712 40.2107C260.712 41.1667 260.407 41.992 259.712 42.6867C259.017 43.3387 258.235 43.6867 257.236 43.6867H239.688V36.736ZM192.692 31.716C191.357 31.716 190.129 32.04 189.005 32.692C187.883 33.344 186.996 34.2227 186.344 35.328C185.692 36.436 185.367 37.672 185.367 39.0387C185.367 40.3747 185.692 41.6013 186.344 42.7267C186.996 43.8507 187.883 44.736 189.005 45.388C190.129 46.04 191.357 46.3653 192.692 46.3653H206.119C207.129 46.3653 207.992 46.7227 208.707 47.4387C209.423 48.1547 209.781 49.0187 209.781 50.0267C209.781 51.0347 209.423 51.8973 208.707 52.616C207.992 53.3307 207.129 53.6893 206.119 53.6893H185.393V58.5707H206.119C207.716 58.5707 209.155 58.1893 210.44 57.4253C211.728 56.66 212.752 55.6333 213.517 54.348C214.283 53.0627 214.667 51.6213 214.667 50.0267C214.667 48.432 214.283 46.9907 213.517 45.7053C212.752 44.4213 211.728 43.3933 210.44 42.6293C209.155 41.864 207.716 41.4813 206.119 41.4813H192.692C192.009 41.4813 191.429 41.2453 190.959 40.7733C190.485 40.3013 190.251 39.7227 190.251 39.0387C190.251 38.3547 190.485 37.7787 190.959 37.3053C191.429 36.8347 192.009 36.5973 192.692 36.5973H214.817V31.716H192.692ZM5.31868 33.2493L7.20666 37.6653H24.8653C25.7773 37.6653 26.5573 37.9893 27.2053 38.636C27.852 39.284 28.1773 40.064 28.1773 40.976V53.116H10.5187C9.60668 53.116 8.824 52.7933 8.17867 52.1467C7.53067 51.4987 7.20666 50.7187 7.20666 49.8067C7.20666 48.8947 7.53067 48.1147 8.17867 47.4667C8.824 46.8187 9.60668 46.496 10.5187 46.496H25.9693V42.0813H10.5187C9.10534 42.0813 7.81068 42.428 6.63468 43.1187C5.45468 43.8093 4.52265 44.736 3.83065 45.9C3.13731 47.0613 2.79333 48.3627 2.79333 49.8067C2.79333 51.248 3.13731 52.5507 3.83065 53.712C4.52265 54.8747 5.45468 55.8027 6.63468 56.4933C7.81068 57.1853 9.10534 57.532 10.5187 57.532H29.256C31.1333 57.7747 32.828 58.368 34.656 59.648C35.7187 60.392 36.828 59.0493 35.908 58.1333C33.6267 55.4733 32.7747 54.1093 32.592 50.8707V40.976C32.592 39.536 32.2466 38.2333 31.5546 37.0693C30.8613 35.9067 29.9333 34.9813 28.7733 34.288C27.6093 33.596 26.3066 33.2493 24.8653 33.2493H5.31868Z" fill="url(#paint0_linear_1_13)"/>
<path d="M114.328 1.94535C112.113 10.7627 105.901 27.488 100.081 37.608C95.52 45.4707 91.088 55.0707 73.4533 59.9787C72.0186 60.4133 72.888 61.9333 74.4507 61.9333H89.4373C96.128 61.9333 101.383 58.4587 103.251 52.7253C109.116 34.8707 112.937 35.0013 117.327 35.74C123.797 36.7827 128.488 49.9014 129.705 55.94C130.009 57.3294 131.443 58.5453 132.877 58.5453H142.607C142.997 58.5453 143.432 58.5893 143.736 58.372C144.735 57.764 142.607 57.5027 141.347 56.2427C133.309 48.164 125.491 28.7467 124.536 26.3134C124.531 26.3027 124.527 26.2907 124.523 26.2787C133.984 19.3294 145.456 15.5174 157.312 15.5174H157.821C161.436 15.5174 164.489 12.464 164.489 8.84536C164.489 5.23069 161.436 2.17735 157.821 2.17735C155.437 2.17735 153.845 3.36001 152.933 4.34934C144.829 13.1253 134.149 18.9853 122.533 21.1853C122.549 21.2293 122.564 21.2733 122.581 21.3187C123.185 22.9574 123.832 24.64 124.523 26.2787C122.716 27.6067 120.976 29.0347 119.329 30.5853C117.891 31.9387 116.444 31.9387 115.969 31.9387C113.293 31.9387 111.031 29.6734 111.031 26.9974C111.031 24.1254 113.42 22.1987 115.629 22.064C117.96 21.92 120.263 21.616 122.533 21.1853C119.952 14.3227 118.011 7.42535 116.629 1.90269C116.587 1.68536 116.24 0.512024 115.501 0.512024C114.589 0.512024 114.372 1.68535 114.328 1.94535ZM159.504 21.3187C156.116 21.3187 153.38 24.056 153.38 27.444V55.852C153.38 57.372 154.596 58.5894 156.072 58.5894H168.017C168.017 58.5894 167.975 57.0694 166.54 56.808C164.585 56.504 161.415 54.288 161.328 50.856L161.285 21.3187H159.504Z" fill="url(#paint1_linear_1_13)"/>
<path d="M6.08394 77.972C-4.19206 79.4533 1.26928 81.0453 6.07328 80.7947C15.7759 80.2893 71.56 75.3573 134.1 74.684C196.637 75.3573 252.421 80.2893 262.125 80.7947C266.931 81.0453 272.391 79.4533 262.116 77.972C251.953 76.5053 184.604 68.7213 134.1 68.5493C83.5946 68.7213 16.2453 76.5053 6.08394 77.972Z" fill="url(#paint2_linear_1_13)"/>
<defs>
<linearGradient id="paint0_linear_1_13" x1="134.098" y1="59.865" x2="134.098" y2="28.7852" gradientUnits="userSpaceOnUse">
<stop stop-color="#83498A"/>
<stop offset="0.485427" stop-color="#83498A"/>
<stop offset="1" stop-color="#E35441"/>
</linearGradient>
<linearGradient id="paint1_linear_1_13" x1="167.985" y1="8.32919" x2="95.8385" y2="66.3439" gradientUnits="userSpaceOnUse">
<stop stop-color="#F6BE4F"/>
<stop offset="1" stop-color="#EA5746"/>
</linearGradient>
<linearGradient id="paint2_linear_1_13" x1="204.802" y1="0.0799361" x2="90.4804" y2="128.882" gradientUnits="userSpaceOnUse">
<stop stop-color="#F9C159"/>
<stop offset="0.194297" stop-color="#F9C159"/>
<stop offset="0.522346" stop-color="#EA5548"/>
<stop offset="0.767876" stop-color="#EA5548"/>
<stop offset="0.829609" stop-color="#884A8B"/>
<stop offset="0.860906" stop-color="#884A8B"/>
<stop offset="0.907821" stop-color="#216F72"/>
<stop offset="1" stop-color="#00304B"/>
</linearGradient>
</defs>
</svg>
