<svg width="116" height="110" viewBox="0 0 116 110" fill="none" xmlns="http://www.w3.org/2000/svg">
<path d="M70.668 1.96801C67.9627 4.90001 52.5187 22.2067 47.4667 27.2107C42.044 32.5814 36.1693 37.684 29.5427 41.4733C23.9587 44.6653 13.4013 47.9374 8.65733 47.5494C9.60933 47.628 10.7107 51.4667 21.312 51.4653C32.1053 51.464 39.8053 43.4707 46.468 35.668C48.4907 33.3 50.3587 30.8013 52.4147 28.4627C54.1187 26.5253 56.5467 23.356 59.448 23.6867C62.7253 24.06 62.4693 27.4374 61.7347 29.8974C60.9293 32.5814 59.58 35.0454 58.26 37.4947C57.8307 38.2907 54.8453 43.068 57.7413 42.244C60.7573 41.3867 63.5947 40.0427 66.624 39.2134C69.4373 38.444 74.0933 37.7533 76.9987 37.8173C79.0667 37.8627 74.54 36.8013 73.7227 36.5253C69.5707 35.1253 67.7973 32.5467 69.7147 25.2653C69.7147 25.2613 75.3453 6.82668 76.376 3.83068C77.1947 1.45468 76.0827 0.0160065 74.3747 0.0160065C73.268 0.0160065 71.9107 0.62001 70.668 1.96801ZM63.1027 20.4427C59.008 20.3 60.752 14.0667 64.14 14.4867C67.9067 14.8453 66.376 20.448 63.2693 20.448C63.2147 20.448 63.1587 20.4467 63.1027 20.4427Z" fill="url(#paint0_linear_1_11)"/>
<path d="M0.824002 69.532C0.130669 69.9014 0.774668 71.1174 1.53867 71.268C2.104 71.3787 5.71467 69.8 11.8107 67.476C18.7747 64.9267 28.0213 66.864 25.4813 77.588C23.8347 84.392 21.2067 92.5387 19.2333 98.6187C18.16 101.933 17.3093 104.548 16.9387 105.98C15.9613 109.756 21.8093 111.232 24.5107 108.647C25.1173 108.065 28.4293 103.403 33.5893 96.8027C43.7747 83.424 52.5933 74.0533 66.9467 65.52C71.532 62.792 74.5 62.0293 79.248 60.8507C76.8067 59.5987 65.452 59.804 53.688 67.8853C40.676 76.8253 28.1867 90.2933 28.448 89.2653C31.0053 79.26 37.212 62.5933 30.368 61.336L30.228 61.168C46.7613 56.164 69.3973 51.0973 95.4533 50.7027C104.9 50.56 114.756 52.312 115.04 52.328C115.04 52.328 110.701 47.8987 88.8667 46.8733C86.8533 46.7787 84.8467 46.7334 82.8587 46.7334C47.3733 46.732 16.3907 61.2133 0.824002 69.532Z" fill="url(#paint1_linear_1_11)"/>
<defs>
<linearGradient id="paint0_linear_1_11" x1="83.6885" y1="-3.08241" x2="32.411" y2="54.6902" gradientUnits="userSpaceOnUse">
<stop stop-color="#F9C159"/>
<stop offset="0.237936" stop-color="#F9C159"/>
<stop offset="0.639665" stop-color="#EA5548"/>
<stop offset="1" stop-color="#216F72"/>
</linearGradient>
<linearGradient id="paint1_linear_1_11" x1="57.7846" y1="109.945" x2="57.7846" y2="46.7338" gradientUnits="userSpaceOnUse">
<stop stop-color="#0A2E4D"/>
<stop offset="0.304469" stop-color="#216F72"/>
<stop offset="0.564246" stop-color="#3D286A"/>
<stop offset="0.930168" stop-color="#E29565"/>
<stop offset="1" stop-color="#E29565"/>
</linearGradient>
</defs>
</svg>
